<svg width="50" height="50" viewBox="0 0 50 50" fill="none" xmlns="http://www.w3.org/2000/svg">
<path d="M29.1662 20.26V17.4475C30.3121 16.9617 31.4842 16.5971 32.6825 16.3537C33.88 16.1112 35.1387 15.99 36.4587 15.99C37.3612 15.99 38.2467 16.0592 39.115 16.1975C39.9825 16.3367 40.8329 16.5104 41.6662 16.7187V19.3225C40.8329 19.01 39.9908 18.7758 39.14 18.62C38.29 18.4633 37.3962 18.385 36.4587 18.385C35.1387 18.385 33.8712 18.55 32.6562 18.88C31.4412 19.21 30.2779 19.67 29.1662 20.26ZM29.1662 31.7187V28.8537C30.3121 28.3679 31.4842 28.0121 32.6825 27.7862C33.88 27.5604 35.1387 27.4475 36.4587 27.4475C37.3612 27.4475 38.2467 27.5171 39.115 27.6562C39.9825 27.7954 40.8329 27.9692 41.6662 28.1775V30.7812C40.8329 30.4687 39.9908 30.2342 39.14 30.0775C38.29 29.9217 37.3962 29.8437 36.4587 29.8437C35.1387 29.8437 33.8712 30 32.6562 30.3125C31.4412 30.625 30.2779 31.0937 29.1662 31.7187ZM29.1662 25.99V23.1775C30.3121 22.6908 31.4842 22.3262 32.6825 22.0837C33.88 21.8404 35.1387 21.7187 36.4587 21.7187C37.3612 21.7187 38.2467 21.7883 39.115 21.9275C39.9825 22.0658 40.8329 22.2392 41.6662 22.4475V25.0525C40.8329 24.74 39.9908 24.5054 39.14 24.3487C38.29 24.1929 37.3962 24.115 36.4587 24.115C35.1387 24.115 33.8712 24.28 32.6562 24.61C31.4412 24.9392 30.2779 25.3992 29.1662 25.99ZM13.125 34.01C14.8958 34.01 16.6321 34.2183 18.3337 34.635C20.0346 35.0517 21.7012 35.6767 23.3337 36.51V14.8437C21.8054 13.8712 20.1733 13.1246 18.4375 12.6037C16.7017 12.0829 14.9308 11.8225 13.125 11.8225C11.84 11.8225 10.5637 11.9704 9.29624 12.2662C8.02957 12.5612 6.78832 12.9517 5.57249 13.4375V35.365C6.68416 34.9133 7.89957 34.5746 9.21874 34.3487C10.5379 34.1229 11.84 34.01 13.125 34.01ZM26.8225 36.51C28.4892 35.6767 30.13 35.0517 31.745 34.635C33.3592 34.2183 35.0692 34.01 36.875 34.01C38.16 34.01 39.4708 34.1142 40.8075 34.3225C42.1442 34.5308 43.3508 34.8262 44.4275 35.2087V13.4375C43.2817 12.8817 42.0662 12.4737 40.7812 12.2137C39.4962 11.9529 38.1942 11.8225 36.875 11.8225C35.0692 11.8225 33.3158 12.0829 31.615 12.6037C29.9133 13.1246 28.3158 13.8712 26.8225 14.8437V36.51ZM25.0525 41.6662C23.3158 40.3471 21.4321 39.3317 19.4012 38.62C17.3696 37.9083 15.2775 37.5525 13.125 37.5525C11.3192 37.5525 9.37457 37.8996 7.29124 38.5937C5.20791 39.2879 3.47207 40.1387 2.08374 41.1462V11.1975C3.57624 10.295 5.31207 9.59207 7.29124 9.08874C9.27041 8.58541 11.215 8.33374 13.125 8.33374C15.2433 8.33374 17.3179 8.61999 19.3487 9.19249C21.3804 9.76582 23.2817 10.6254 25.0525 11.7712C26.8233 10.6254 28.7067 9.76582 30.7025 9.19249C32.6992 8.61999 34.7567 8.33374 36.875 8.33374C38.785 8.33374 40.7296 8.59416 42.7087 9.11499C44.6879 9.63582 46.4237 10.33 47.9162 11.1975V41.1462C46.5621 40.1387 44.835 39.2879 42.735 38.5937C40.6342 37.8996 38.6808 37.5525 36.875 37.5525C34.7225 37.5525 32.6479 37.9171 30.6512 38.6462C28.6546 39.3754 26.7883 40.3821 25.0525 41.6662Z" fill="#F0F0F0"/>
</svg>
