<svg width="50" height="50" viewBox="0 0 50 50" fill="none" xmlns="http://www.w3.org/2000/svg">
<path d="M25 43.75C22.7433 43.75 20.6425 43.2033 18.6975 42.11C16.7533 41.0158 15.295 39.4792 14.3225 37.5H8.33375V34.01H12.9688C12.7954 33.1767 12.7 32.3433 12.6825 31.51C12.665 30.6767 12.6562 29.8263 12.6562 28.9587H8.28125V25.4688H12.6562C12.6562 24.5662 12.665 23.6721 12.6825 22.7863C12.7 21.9012 12.83 21.0246 13.0725 20.1562H8.33375V16.6663H14.4275C14.9133 15.7638 15.5296 14.9479 16.2762 14.2188C17.0229 13.4896 17.8475 12.8821 18.75 12.3962L14.9475 8.59375L17.3438 6.25L22.0837 10.99C23.0554 10.6775 24.0363 10.5212 25.0262 10.5212C26.0154 10.5212 26.9963 10.6775 27.9688 10.99L32.76 6.25L35.1562 8.59375L31.3538 12.3962C32.2571 12.8821 33.0646 13.4896 33.7762 14.2188C34.4879 14.9479 35.1217 15.7638 35.6775 16.6663H41.7188V20.1562H36.9275C37.17 21.0246 37.2913 21.9012 37.2913 22.7863V25.4688H41.7188V28.9587H37.2913V31.51C37.2913 32.3433 37.2046 33.1767 37.0312 34.01H41.7188V37.5H35.7288C34.7571 39.5142 33.2987 41.0592 31.3538 42.135C29.4096 43.2117 27.2917 43.75 25 43.75ZM25 40.26C27.4308 40.26 29.5054 39.4096 31.2238 37.7087C32.9429 36.0071 33.8025 33.9408 33.8025 31.51V22.9163C33.8025 20.4862 32.9429 18.4117 31.2238 16.6925C29.5054 14.9742 27.4308 14.115 25 14.115C22.5692 14.115 20.4946 14.9742 18.7762 16.6925C17.0571 18.4117 16.1975 20.4862 16.1975 22.9163V31.51C16.1975 33.9408 17.0571 36.0071 18.7762 37.7087C20.4946 39.4096 22.5692 40.26 25 40.26ZM20.8337 33.3337H29.1663V29.8438H20.8337V33.3337ZM20.8337 24.5312H29.1663V21.0938H20.8337V24.5312ZM25 27.24H25.0262H25H25.0262H25H25.0262H25H25.0262H25Z" fill="#F0F0F0"/>
</svg>
