<svg width="179" height="30" viewBox="0 0 179 30" fill="none" xmlns="http://www.w3.org/2000/svg">
<path d="M21.2001 9.47997C20.5601 8.30664 19.6801 7.4133 18.5601 6.79997C17.4401 6.18664 16.1334 5.87997 14.6401 5.87997C12.9868 5.87997 11.5201 6.2533 10.2401 6.99997C8.96009 7.74664 7.96009 8.8133 7.24009 10.2C6.52009 11.5866 6.16009 13.1866 6.16009 15C6.16009 16.8666 6.52009 18.4933 7.24009 19.88C7.98675 21.2666 9.01342 22.3333 10.3201 23.08C11.6268 23.8266 13.1468 24.2 14.8801 24.2C17.0134 24.2 18.7601 23.64 20.1201 22.52C21.4801 21.3733 22.3734 19.7866 22.8001 17.76H13.2001V13.48H28.3201V18.36C27.9468 20.3066 27.1468 22.1066 25.9201 23.76C24.6934 25.4133 23.1068 26.7466 21.1601 27.76C19.2401 28.7466 17.0801 29.24 14.6801 29.24C11.9868 29.24 9.54675 28.64 7.36009 27.44C5.20009 26.2133 3.49342 24.52 2.24009 22.36C1.01342 20.2 0.400085 17.7466 0.400085 15C0.400085 12.2533 1.01342 9.79997 2.24009 7.63997C3.49342 5.4533 5.20009 3.75997 7.36009 2.55997C9.54675 1.3333 11.9734 0.719971 14.6401 0.719971C17.7868 0.719971 20.5201 1.4933 22.8401 3.03997C25.1601 4.55997 26.7601 6.70664 27.6401 9.47997H21.2001Z" fill="#141414"/>
<path d="M53.3832 6.83997V29H47.7432V26.2C47.0232 27.16 46.0765 27.92 44.9032 28.48C43.7565 29.0133 42.5032 29.28 41.1432 29.28C39.4099 29.28 37.8765 28.92 36.5432 28.2C35.2099 27.4533 34.1565 26.3733 33.3832 24.96C32.6365 23.52 32.2632 21.8133 32.2632 19.84V6.83997H37.8632V19.04C37.8632 20.8 38.3032 22.16 39.1832 23.12C40.0632 24.0533 41.2632 24.52 42.7832 24.52C44.3299 24.52 45.5432 24.0533 46.4232 23.12C47.3032 22.16 47.7432 20.8 47.7432 19.04V6.83997H53.3832Z" fill="#141414"/>
<path d="M67.3885 29.36C65.5752 29.36 63.9485 29.04 62.5085 28.4C61.0685 27.7333 59.9219 26.84 59.0685 25.72C58.2419 24.6 57.7885 23.36 57.7085 22H63.3485C63.4552 22.8533 63.8685 23.56 64.5885 24.12C65.3352 24.68 66.2552 24.96 67.3485 24.96C68.4152 24.96 69.2419 24.7466 69.8285 24.32C70.4419 23.8933 70.7485 23.3466 70.7485 22.68C70.7485 21.96 70.3752 21.4266 69.6285 21.08C68.9085 20.7066 67.7485 20.3066 66.1485 19.88C64.4952 19.48 63.1352 19.0666 62.0685 18.64C61.0285 18.2133 60.1219 17.56 59.3485 16.68C58.6019 15.8 58.2285 14.6133 58.2285 13.12C58.2285 11.8933 58.5752 10.7733 59.2685 9.75997C59.9885 8.74664 61.0019 7.94664 62.3085 7.35997C63.6419 6.7733 65.2019 6.47997 66.9885 6.47997C69.6285 6.47997 71.7352 7.14664 73.3085 8.47997C74.8819 9.78664 75.7485 11.56 75.9085 13.8H70.5485C70.4685 12.92 70.0952 12.2266 69.4285 11.72C68.7885 11.1866 67.9219 10.92 66.8285 10.92C65.8152 10.92 65.0285 11.1066 64.4685 11.48C63.9352 11.8533 63.6685 12.3733 63.6685 13.04C63.6685 13.7866 64.0419 14.36 64.7885 14.76C65.5352 15.1333 66.6952 15.52 68.2685 15.92C69.8685 16.32 71.1885 16.7333 72.2285 17.16C73.2685 17.5866 74.1619 18.2533 74.9085 19.16C75.6819 20.04 76.0819 21.2133 76.1085 22.68C76.1085 23.96 75.7485 25.1066 75.0285 26.12C74.3352 27.1333 73.3219 27.9333 71.9885 28.52C70.6819 29.08 69.1485 29.36 67.3885 29.36Z" fill="#141414"/>
<path d="M87.2254 11.44V22.16C87.2254 22.9066 87.3987 23.4533 87.7454 23.8C88.1187 24.12 88.7321 24.28 89.5854 24.28H92.1854V29H88.6654C83.9454 29 81.5854 26.7066 81.5854 22.12V11.44H78.9454V6.83997H81.5854V1.35997H87.2254V6.83997H92.1854V11.44H87.2254Z" fill="#141414"/>
<path d="M94.7732 17.84C94.7732 15.6 95.2132 13.6133 96.0932 11.88C96.9999 10.1466 98.2132 8.8133 99.7332 7.87997C101.28 6.94664 103 6.47997 104.893 6.47997C106.547 6.47997 107.987 6.8133 109.213 7.47997C110.467 8.14664 111.467 8.98664 112.213 9.99997V6.83997H117.853V29H112.213V25.76C111.493 26.8 110.493 27.6666 109.213 28.36C107.96 29.0266 106.507 29.36 104.853 29.36C102.987 29.36 101.28 28.88 99.7332 27.92C98.2132 26.96 96.9999 25.6133 96.0932 23.88C95.2132 22.12 94.7732 20.1066 94.7732 17.84ZM112.213 17.92C112.213 16.56 111.947 15.4 111.413 14.44C110.88 13.4533 110.16 12.7066 109.253 12.2C108.347 11.6666 107.373 11.4 106.333 11.4C105.293 11.4 104.333 11.6533 103.453 12.16C102.573 12.6666 101.853 13.4133 101.293 14.4C100.76 15.36 100.493 16.5066 100.493 17.84C100.493 19.1733 100.76 20.3466 101.293 21.36C101.853 22.3466 102.573 23.1066 103.453 23.64C104.36 24.1733 105.32 24.44 106.333 24.44C107.373 24.44 108.347 24.1866 109.253 23.68C110.16 23.1466 110.88 22.4 111.413 21.44C111.947 20.4533 112.213 19.28 112.213 17.92Z" fill="#141414"/>
<path d="M132.563 23.84L138.163 6.83997H144.123L135.923 29H129.123L120.963 6.83997H126.963L132.563 23.84Z" fill="#141414"/>
<path d="M157.108 29.36C154.975 29.36 153.055 28.8933 151.348 27.96C149.641 27 148.295 25.6533 147.308 23.92C146.348 22.1866 145.868 20.1866 145.868 17.92C145.868 15.6533 146.361 13.6533 147.348 11.92C148.361 10.1866 149.735 8.8533 151.468 7.91997C153.201 6.95997 155.135 6.47997 157.268 6.47997C159.401 6.47997 161.335 6.95997 163.068 7.91997C164.801 8.8533 166.161 10.1866 167.148 11.92C168.161 13.6533 168.668 15.6533 168.668 17.92C168.668 20.1866 168.148 22.1866 167.108 23.92C166.095 25.6533 164.708 27 162.948 27.96C161.215 28.8933 159.268 29.36 157.108 29.36ZM157.108 24.48C158.121 24.48 159.068 24.24 159.948 23.76C160.855 23.2533 161.575 22.5066 162.108 21.52C162.641 20.5333 162.908 19.3333 162.908 17.92C162.908 15.8133 162.348 14.2 161.228 13.08C160.135 11.9333 158.788 11.36 157.188 11.36C155.588 11.36 154.241 11.9333 153.148 13.08C152.081 14.2 151.548 15.8133 151.548 17.92C151.548 20.0266 152.068 21.6533 153.108 22.8C154.175 23.92 155.508 24.48 157.108 24.48Z" fill="#141414"/>
<path d="M175.256 29.28C174.242 29.28 173.402 28.9733 172.736 28.36C172.096 27.72 171.776 26.9333 171.776 26C171.776 25.0666 172.096 24.2933 172.736 23.68C173.402 23.04 174.242 22.72 175.256 22.72C176.242 22.72 177.056 23.04 177.696 23.68C178.336 24.2933 178.656 25.0666 178.656 26C178.656 26.9333 178.336 27.72 177.696 28.36C177.056 28.9733 176.242 29.28 175.256 29.28Z" fill="#E2622B"/>
</svg>
