<svg width="50" height="50" viewBox="0 0 50 50" fill="none" xmlns="http://www.w3.org/2000/svg">
<path d="M42.0837 13.8025L40.26 9.74L36.1975 7.91625L40.26 6.09375L42.0837 2.03125L43.9062 6.09375L47.9687 7.91625L43.9062 9.74L42.0837 13.8025ZM17.3437 13.8025L15.5212 9.74L11.51 7.91625L15.5212 6.09375L17.3437 2.03125L19.2187 6.09375L23.2287 7.91625L19.2187 9.74L17.3437 13.8025ZM42.0837 38.49L40.26 34.4788L36.1975 32.6562L40.26 30.7812L42.0837 26.7712L43.9062 30.7812L47.9687 32.6562L43.9062 34.4788L42.0837 38.49ZM10.0525 45.2087L4.79121 39.9475C4.40954 39.5658 4.20121 39.1058 4.16621 38.5675C4.13204 38.0292 4.34037 37.5517 4.79121 37.135L28.1775 13.75C28.5941 13.3333 29.0975 13.125 29.6875 13.125C30.2775 13.125 30.7808 13.3333 31.1975 13.75L36.25 18.8025C36.6666 19.2192 36.875 19.7225 36.875 20.3125C36.875 20.9025 36.6666 21.4058 36.25 21.8225L12.865 45.2087C12.4483 45.6254 11.9795 45.8337 11.4587 45.8337C10.9379 45.8337 10.4691 45.6254 10.0525 45.2087ZM11.3537 41.7712L27.1875 25.885L24.0625 22.76L8.17746 38.5938L11.3537 41.7712Z" fill="#F0F0F0"/>
</svg>
