<svg width="50" height="50" viewBox="0 0 50 50" fill="none" xmlns="http://www.w3.org/2000/svg">
<path d="M8.6875 23.2292C7.36806 23.2292 6.25694 22.7778 5.35417 21.875C4.45139 20.9722 4 19.8611 4 18.5417C4 17.2222 4.45139 16.1111 5.35417 15.2083C6.25694 14.3056 7.36806 13.8542 8.6875 13.8542C10.0069 13.8542 11.1181 14.3056 12.0208 15.2083C12.9236 16.1111 13.375 17.2222 13.375 18.5417C13.375 19.8611 12.9236 20.9722 12.0208 21.875C11.1181 22.7778 10.0069 23.2292 8.6875 23.2292ZM18.3229 14.375C17.0035 14.375 15.8924 13.9236 14.9896 13.0208C14.0868 12.1181 13.6354 11.0069 13.6354 9.6875C13.6354 8.36806 14.0868 7.25694 14.9896 6.35417C15.8924 5.45139 17.0035 5 18.3229 5C19.6424 5 20.7535 5.45139 21.6563 6.35417C22.559 7.25694 23.0104 8.36806 23.0104 9.6875C23.0104 11.0069 22.559 12.1181 21.6563 13.0208C20.7535 13.9236 19.6424 14.375 18.3229 14.375ZM31.3438 14.375C30.0243 14.375 28.9132 13.9236 28.0104 13.0208C27.1076 12.1181 26.6563 11.0069 26.6563 9.6875C26.6563 8.36806 27.1076 7.25694 28.0104 6.35417C28.9132 5.45139 30.0243 5 31.3438 5C32.6632 5 33.7743 5.45139 34.6771 6.35417C35.5799 7.25694 36.0313 8.36806 36.0313 9.6875C36.0313 11.0069 35.5799 12.1181 34.6771 13.0208C33.7743 13.9236 32.6632 14.375 31.3438 14.375ZM40.9792 23.2292C39.6597 23.2292 38.5486 22.7778 37.6458 21.875C36.7431 20.9722 36.2917 19.8611 36.2917 18.5417C36.2917 17.2222 36.7431 16.1111 37.6458 15.2083C38.5486 14.3056 39.6597 13.8542 40.9792 13.8542C42.2986 13.8542 43.4097 14.3056 44.3125 15.2083C45.2153 16.1111 45.6667 17.2222 45.6667 18.5417C45.6667 19.8611 45.2153 20.9722 44.3125 21.875C43.4097 22.7778 42.2986 23.2292 40.9792 23.2292ZM13.6875 44.5833C12.2292 44.5833 11.0313 44.0365 10.0938 42.9427C9.15625 41.849 8.6875 40.5556 8.6875 39.0625C8.6875 37.6042 9.13021 36.3108 10.0156 35.1823C10.901 34.0538 11.8472 32.9687 12.8542 31.9271C13.6181 31.1632 14.3299 30.3559 14.9896 29.5052C15.6493 28.6545 16.2743 27.7778 16.8646 26.875C17.8715 25.3472 19 23.9236 20.25 22.6042C21.5 21.2847 23.0278 20.625 24.8333 20.625C26.6389 20.625 28.1753 21.2847 29.4427 22.6042C30.7101 23.9236 31.8472 25.3646 32.8542 26.9271C33.4444 27.8299 34.0608 28.6979 34.7031 29.5312C35.3455 30.3646 36.0486 31.1632 36.8125 31.9271C37.8194 32.9687 38.7656 34.0538 39.651 35.1823C40.5365 36.3108 40.9792 37.6042 40.9792 39.0625C40.9792 40.5556 40.5104 41.849 39.5729 42.9427C38.6354 44.0365 37.4375 44.5833 35.9792 44.5833C34.1042 44.5833 32.2465 44.4271 30.4063 44.1146C28.566 43.8021 26.7083 43.6458 24.8333 43.6458C22.9583 43.6458 21.1007 43.8021 19.2604 44.1146C17.4201 44.4271 15.5625 44.5833 13.6875 44.5833Z" fill="#F0F0F0"/>
</svg>
