<svg width="50" height="50" viewBox="0 0 50 50" fill="none" xmlns="http://www.w3.org/2000/svg">
<path d="M10.4163 21.1463L15.4688 23.2813C16.0246 22.1354 16.6321 21.0071 17.2913 19.8963C17.9513 18.7846 18.6458 17.7079 19.375 16.6663L15.6775 15.9375L10.4163 21.1463ZM18.2288 25.4163L24.8438 31.9788C26.6496 31.2154 28.4029 30.2609 30.1038 29.115C31.8054 27.9692 33.2638 26.7884 34.4788 25.5725C37.1529 22.8992 39.1583 20.0784 40.495 17.11C41.8317 14.1409 42.5175 11.0071 42.5525 7.70878C39.2192 7.70878 36.0767 8.37712 33.125 9.71378C30.1733 11.0504 27.3433 13.0729 24.635 15.7813C23.455 16.9621 22.2921 18.4117 21.1463 20.13C20.0004 21.8492 19.0279 23.6113 18.2288 25.4163ZM29.2713 20.9375C28.5421 20.2084 28.1775 19.3142 28.1775 18.255C28.1775 17.1959 28.5421 16.3017 29.2713 15.5725C30.0004 14.8434 30.9029 14.4788 31.9788 14.4788C33.0554 14.4788 33.9583 14.8434 34.6875 15.5725C35.4167 16.3017 35.7813 17.1959 35.7813 18.255C35.7813 19.3142 35.4167 20.2084 34.6875 20.9375C33.9583 21.6667 33.0554 22.0313 31.9788 22.0313C30.9029 22.0313 30.0004 21.6667 29.2713 20.9375ZM29.0625 39.8438L34.3225 34.5838L33.5938 30.885C32.5521 31.6142 31.4758 32.3 30.365 32.9425C29.2533 33.585 28.1075 34.2013 26.9275 34.7913L29.0625 39.8438ZM45.8338 4.37503C46.2504 8.92337 45.7208 13.1596 44.245 17.0838C42.7692 21.0071 40.2779 24.7221 36.7713 28.2288C36.7363 28.2288 36.71 28.2463 36.6925 28.2813C36.675 28.3163 36.6492 28.3338 36.615 28.3338L37.76 33.9063C37.8642 34.4621 37.8296 35.0175 37.6563 35.5725C37.4829 36.1284 37.1879 36.6146 36.7713 37.0313L27.9163 45.885L23.49 35.625L14.635 26.7188L4.32251 22.3438L13.2288 13.49C13.6454 13.0734 14.1229 12.7779 14.6613 12.6038C15.1996 12.4304 15.7638 12.3959 16.3538 12.5L21.875 13.5938C21.91 13.5938 21.9358 13.585 21.9525 13.5675L22.0313 13.49C25.5379 10.0175 29.2446 7.52587 33.1513 6.01503C37.0571 4.50503 41.2846 3.95837 45.8338 4.37503ZM7.91626 33.125C9.13209 31.91 10.6167 31.2938 12.37 31.2763C14.1233 31.2588 15.6075 31.8575 16.8225 33.0725C18.0383 34.2884 18.6375 35.7729 18.62 37.5263C18.6025 39.2796 17.9863 40.7638 16.7713 41.9788C15.8679 42.8821 14.4442 43.6375 12.5 44.245C10.5558 44.8525 7.72584 45.3992 4.01001 45.885C4.53084 42.17 5.08668 39.3405 5.67751 37.3963C6.26751 35.4513 7.01376 34.0275 7.91626 33.125ZM10.365 35.625C9.91334 36.0767 9.50501 36.8234 9.14001 37.865C8.77584 38.9067 8.47209 40.1738 8.22876 41.6663C9.68709 41.4238 10.9458 41.12 12.005 40.755C13.0642 40.3909 13.8196 39.9829 14.2713 39.5313C14.8613 39.0104 15.165 38.3592 15.1825 37.5775C15.2 36.7967 14.9308 36.1113 14.375 35.5213C13.785 34.9654 13.0992 34.6963 12.3175 34.7138C11.5367 34.7313 10.8858 35.035 10.365 35.625Z" fill="#F0F0F0"/>
</svg>
